<svg version="1.1" id="logo" xmlns="http://www.w3.org/2000/svg" xmlns:xlink="http://www.w3.org/1999/xlink" x="0px" y="0px" viewBox="0 0 404.1 404.1" style="enable-background:new 0 0 404.1 404.1;" xml:space="preserve">
<circle fill="#ffd300" cx="202.1" cy="202.1" r="162.8"></circle>
<path d="M398.5,193.6c-5-9.2-16.5-12.7-25.8-7.7l-83.4,45l-14.9-23.7l33.9-18.4c9.2-5,12.7-16.5,7.7-25.8
	c-5-9.2-16.5-12.7-25.8-7.7l-36.1,19.6l-64.8-103c-3.4-5.5-9.5-8.8-16-8.8s-12.6,3.3-16.1,8.9L6.2,312c-4.6,7.3-3.7,16.8,2.2,23.1
	c5.9,6.3,15.3,7.8,22.9,3.7l209.6-113.5l14.9,23.7l-99.5,53.7c-9.2,5-12.7,16.5-7.7,25.8c3.4,6.4,10,10,16.7,10c3.1,0,6.1-0.7,9-2.3
	L276,281.3l32.1,51c3.6,5.7,9.8,8.9,16.1,8.9c3.5,0,7-0.9,10.1-2.9c8.9-5.6,11.5-17.3,6-26.2l-30.7-48.8l81.2-43.8
	C400.1,214.3,403.5,202.8,398.5,193.6z M77,270.9l96.3-153.1l47.4,75.3L77,270.9z"></path>
</svg>